<svg width="24" height="24" viewBox="0 0 24 24" fill="none" xmlns="http://www.w3.org/2000/svg">
<g clip-path="url(#clip0_129_2905)">
<path d="M17.6553 6.5C17.8401 6.50003 17.9566 6.50999 18.0312 6.52539C18.0481 6.52891 18.0611 6.53329 18.0703 6.53613C18.0717 6.54098 18.0746 6.54685 18.0762 6.55371C18.0904 6.61502 18.1006 6.7169 18.1006 6.88867V8.66699C18.1006 8.83879 18.0905 8.94067 18.0762 9.00195C18.0747 9.00844 18.0717 9.01387 18.0703 9.01855C18.0611 9.02141 18.0483 9.02671 18.0312 9.03027C17.9566 9.04567 17.84 9.05563 17.6553 9.05566H14.9639C14.1952 9.05575 13.5186 9.64877 13.5186 10.4443V12.667C13.5187 12.943 13.7425 13.167 14.0186 13.167H16.5469C16.7902 13.167 16.9478 13.1799 17.0479 13.2021C17.0575 13.2043 17.0667 13.2079 17.0742 13.21L17.0752 13.2109C17.071 13.2973 17.044 13.4354 16.9775 13.6543L16.5723 14.9873C16.4923 15.2503 16.452 15.2609 16.4688 15.249C16.4769 15.2433 16.4697 15.2515 16.4199 15.2607C16.3644 15.271 16.2787 15.2773 16.1416 15.2773H14.0186C13.7426 15.2774 13.5188 15.5014 13.5186 15.7773V23.9043C13.0212 23.9671 12.5144 24 12 24C11.5732 24 11.1516 23.9771 10.7363 23.9336V15.7773C10.7361 15.5016 10.5121 15.2776 10.2363 15.2773H8.3457C8.16114 15.2773 8.04454 15.2683 7.96973 15.2529C7.95237 15.2493 7.93898 15.2442 7.92969 15.2412C7.92836 15.2366 7.92633 15.2311 7.9248 15.2246C7.91048 15.1633 7.90039 15.0609 7.90039 14.8887V13.5557C7.90039 13.3834 7.91048 13.281 7.9248 13.2197C7.92643 13.2128 7.92829 13.207 7.92969 13.2021C7.93896 13.1993 7.95256 13.195 7.96973 13.1914C8.04454 13.1761 8.16116 13.167 8.3457 13.167H10.2363C10.5121 13.1667 10.7362 12.9428 10.7363 12.667V10.4443C10.7364 8.29459 12.5998 6.50008 14.9639 6.5H17.6553ZM12 0C18.6274 0 24 5.37258 24 12C24 17.7633 19.9365 22.575 14.5186 23.7324V16.2773H16.1416C16.4367 16.2773 16.7724 16.2591 17.0469 16.0645C17.3289 15.8643 17.4463 15.5515 17.5293 15.2783L17.9346 13.9453C18.0075 13.7052 18.0639 13.4719 18.0742 13.2598C18.0848 13.0426 18.0489 12.7907 17.877 12.5762C17.709 12.3669 17.4745 12.2732 17.2656 12.2266C17.0565 12.18 16.8108 12.167 16.5469 12.167H14.5186V10.4443C14.5186 10.2582 14.6885 10.0557 14.9639 10.0557H17.6553C17.8605 10.0556 18.0579 10.046 18.2334 10.0098C18.4131 9.9726 18.6047 9.90045 18.7637 9.75098C19.0768 9.4562 19.1006 9.01671 19.1006 8.66699V6.88867C19.1006 6.53896 19.0768 6.09949 18.7637 5.80469C18.6047 5.65521 18.4131 5.58307 18.2334 5.5459C18.0579 5.5097 17.8605 5.50003 17.6553 5.5H14.9639C12.1065 5.50008 9.73639 7.68509 9.73633 10.4443V12.167H8.3457C8.14028 12.167 7.94225 12.1767 7.7666 12.2129C7.58708 12.25 7.39621 12.3215 7.2373 12.4707C6.92367 12.7656 6.90039 13.2057 6.90039 13.5557V14.8887C6.90039 15.2386 6.92367 15.6788 7.2373 15.9736C7.39627 16.1229 7.58701 16.1953 7.7666 16.2324C7.94225 16.2686 8.14028 16.2773 8.3457 16.2773H9.73633V23.7852C4.19132 22.7265 0 17.8535 0 12C0 5.37258 5.37258 0 12 0Z" fill="white"/>
</g>
<defs>
<clipPath id="clip0_129_2905">
<rect width="24" height="24" fill="white"/>
</clipPath>
</defs>
</svg>
