<svg width="24" height="24" viewBox="0 0 24 24" fill="none" xmlns="http://www.w3.org/2000/svg">
<g clip-path="url(#clip0_129_2890)">
<path d="M12 24C18.6274 24 24 18.6274 24 12C24 5.37258 18.6274 0 12 0C5.37258 0 0 5.37258 0 12C2.06169e-06 18.6274 5.37258 24 12 24ZM12 19.5996C10.3673 19.5996 9.08238 19.6015 8.08008 19.4668C7.06045 19.3297 6.24321 19.042 5.60059 18.3994C4.95796 17.7568 4.67029 16.9396 4.5332 15.9199C4.39851 14.9176 4.40039 13.6327 4.40039 12C4.40039 10.3673 4.39851 9.08238 4.5332 8.08008C4.67029 7.06045 4.95796 6.24321 5.60059 5.60059C6.24321 4.95796 7.06045 4.67029 8.08008 4.5332C9.08238 4.39851 10.3673 4.40039 12 4.40039C13.6327 4.40039 14.9176 4.39851 15.9199 4.5332C16.9396 4.67029 17.7568 4.95796 18.3994 5.60059C19.042 6.24321 19.3297 7.06045 19.4668 8.08008C19.6015 9.08238 19.5996 10.3673 19.5996 12C19.5996 13.6327 19.6015 14.9176 19.4668 15.9199C19.3297 16.9396 19.042 17.7568 18.3994 18.3994C17.7568 19.042 16.9396 19.3297 15.9199 19.4668C14.9176 19.6015 13.6327 19.5996 12 19.5996ZM12 18.4004C13.6669 18.4004 14.8569 18.3989 15.7607 18.2773C16.6472 18.1581 17.1683 17.9333 17.5508 17.5508C17.9333 17.1683 18.1581 16.6472 18.2773 15.7607C18.3989 14.8569 18.4004 13.6669 18.4004 12C18.4004 10.3331 18.3989 9.14308 18.2773 8.23926C18.1581 7.35283 17.9333 6.83169 17.5508 6.44922C17.1683 6.06675 16.6472 5.84186 15.7607 5.72266C14.8569 5.60114 13.6669 5.59961 12 5.59961C10.3331 5.59961 9.14308 5.60114 8.23926 5.72266C7.35283 5.84186 6.83169 6.06675 6.44922 6.44922C6.06675 6.83169 5.84186 7.35283 5.72266 8.23926C5.60114 9.14308 5.59961 10.3331 5.59961 12C5.59961 13.6669 5.60114 14.8569 5.72266 15.7607C5.84186 16.6472 6.06675 17.1683 6.44922 17.5508C6.83169 17.9333 7.35283 18.1581 8.23926 18.2773C9.14308 18.3989 10.3331 18.4004 12 18.4004ZM16.0518 8.74707C15.6099 8.74707 15.251 8.38909 15.251 7.94727C15.251 7.50549 15.61 7.14746 16.0518 7.14746H16.0586C16.5004 7.14746 16.8583 7.50549 16.8584 7.94727C16.8584 8.38909 16.5004 8.74707 16.0586 8.74707H16.0518ZM12 15.916C9.83766 15.9158 8.08516 14.1623 8.08496 12C8.08516 9.83765 9.83765 8.08516 12 8.08496C14.1623 8.08523 15.9158 9.8377 15.916 12C15.9158 14.1623 14.1623 15.9158 12 15.916ZM12 14.7158C13.4995 14.7156 14.7156 13.4996 14.7158 12C14.7156 10.5004 13.4995 9.28444 12 9.28418C10.5004 9.28437 9.28437 10.5004 9.28418 12C9.28438 13.4996 10.5004 14.7156 12 14.7158Z" fill="white"/>
</g>
<defs>
<clipPath id="clip0_129_2890">
<rect width="24" height="24" fill="white"/>
</clipPath>
</defs>
</svg>
