<svg width="8" height="12" viewBox="0 0 8 12" fill="none" xmlns="http://www.w3.org/2000/svg">
<path fill-rule="evenodd" clip-rule="evenodd" d="M7.12134 5.70711L1.41423 11.4142L1.72059e-05 10L4.29291 5.70711L1.75812e-05 1.41421L1.41423 -2.49466e-07L7.12134 5.70711Z" fill="#1D1D1D"/>
<path fill-rule="evenodd" clip-rule="evenodd" d="M7.12134 5.70711L1.41423 11.4142L1.72059e-05 10L4.29291 5.70711L1.75812e-05 1.41421L1.41423 -2.49466e-07L7.12134 5.70711Z" fill="black" fill-opacity="0.2"/>
<path fill-rule="evenodd" clip-rule="evenodd" d="M7.12134 5.70711L1.41423 11.4142L1.72059e-05 10L4.29291 5.70711L1.75812e-05 1.41421L1.41423 -2.49466e-07L7.12134 5.70711Z" fill="black" fill-opacity="0.2"/>
<path fill-rule="evenodd" clip-rule="evenodd" d="M7.12134 5.70711L1.41423 11.4142L1.72059e-05 10L4.29291 5.70711L1.75812e-05 1.41421L1.41423 -2.49466e-07L7.12134 5.70711Z" fill="black" fill-opacity="0.2"/>
<path fill-rule="evenodd" clip-rule="evenodd" d="M7.12134 5.70711L1.41423 11.4142L1.72059e-05 10L4.29291 5.70711L1.75812e-05 1.41421L1.41423 -2.49466e-07L7.12134 5.70711Z" fill="black" fill-opacity="0.2"/>
<path fill-rule="evenodd" clip-rule="evenodd" d="M7.12134 5.70711L1.41423 11.4142L1.72059e-05 10L4.29291 5.70711L1.75812e-05 1.41421L1.41423 -2.49466e-07L7.12134 5.70711Z" fill="black" fill-opacity="0.2"/>
<path fill-rule="evenodd" clip-rule="evenodd" d="M7.12134 5.70711L1.41423 11.4142L1.72059e-05 10L4.29291 5.70711L1.75812e-05 1.41421L1.41423 -2.49466e-07L7.12134 5.70711Z" fill="black" fill-opacity="0.2"/>
<path fill-rule="evenodd" clip-rule="evenodd" d="M7.12134 5.70711L1.41423 11.4142L1.72059e-05 10L4.29291 5.70711L1.75812e-05 1.41421L1.41423 -2.49466e-07L7.12134 5.70711Z" fill="black" fill-opacity="0.2"/>
<path fill-rule="evenodd" clip-rule="evenodd" d="M7.12134 5.70711L1.41423 11.4142L1.72059e-05 10L4.29291 5.70711L1.75812e-05 1.41421L1.41423 -2.49466e-07L7.12134 5.70711Z" fill="black" fill-opacity="0.2"/>
<path fill-rule="evenodd" clip-rule="evenodd" d="M7.12134 5.70711L1.41423 11.4142L1.72059e-05 10L4.29291 5.70711L1.75812e-05 1.41421L1.41423 -2.49466e-07L7.12134 5.70711Z" fill="black" fill-opacity="0.2"/>
<path fill-rule="evenodd" clip-rule="evenodd" d="M7.12134 5.70711L1.41423 11.4142L1.72059e-05 10L4.29291 5.70711L1.75812e-05 1.41421L1.41423 -2.49466e-07L7.12134 5.70711Z" fill="black" fill-opacity="0.2"/>
<path fill-rule="evenodd" clip-rule="evenodd" d="M7.12134 5.70711L1.41423 11.4142L1.72059e-05 10L4.29291 5.70711L1.75812e-05 1.41421L1.41423 -2.49466e-07L7.12134 5.70711Z" fill="black" fill-opacity="0.2"/>
</svg>
