<svg width="24" height="24" viewBox="0 0 24 24" fill="none" xmlns="http://www.w3.org/2000/svg">
<g clip-path="url(#clip0_129_2931)">
<path d="M12 0C18.6274 0 24 5.37258 24 12C24 18.6274 18.6274 24 12 24C5.37258 24 0 18.6274 0 12C0 5.37258 5.37258 0 12 0ZM12.2393 4.40137C12.2246 4.40183 12.2116 4.40285 12.2012 4.40332C12.1875 4.40278 12.1706 4.40184 12.1514 4.40137C12.097 4.40005 12.0207 4.39911 11.9258 4.40137C11.7357 4.4059 11.4692 4.42188 11.1514 4.46777C10.5179 4.55925 9.66542 4.77099 8.80762 5.25684C7.0457 6.25479 5.4004 8.32992 5.40039 12.4482C5.40039 16.5666 7.0457 18.6417 8.80762 19.6396C9.66543 20.1255 10.5179 20.3372 11.1514 20.4287C11.4692 20.4746 11.7357 20.4906 11.9258 20.4951C12.0207 20.4974 12.097 20.4964 12.1514 20.4951C12.1749 20.4945 12.1948 20.4938 12.21 20.4932C12.2154 20.4934 12.2212 20.4939 12.2275 20.4941C12.2617 20.4953 12.3096 20.4961 12.3691 20.4961C12.4881 20.496 12.6558 20.4919 12.8604 20.4746C13.2683 20.4401 13.8303 20.3546 14.4512 20.1494C15.7006 19.7366 17.1944 18.8344 18.126 16.9121L18.1396 16.8838L18.1514 16.8535C18.4643 15.9813 18.6072 14.6116 17.8271 13.4365C17.4031 12.7978 16.7438 12.2742 15.7988 11.9229C15.7741 11.2334 15.6332 10.6334 15.3945 10.123C14.9978 9.27518 14.3495 8.71505 13.6152 8.42773C12.1931 7.8713 10.4155 8.34032 9.62305 9.66113C9.45286 9.94523 9.54508 10.314 9.8291 10.4844C10.1132 10.6548 10.4818 10.5624 10.6523 10.2783C11.1012 9.5302 12.2205 9.17136 13.1777 9.5459C13.6331 9.72407 14.0448 10.0694 14.3076 10.6309C14.4307 10.8939 14.522 11.2134 14.5684 11.5947C13.9943 11.4934 13.3463 11.4385 12.6201 11.4385H12.6055C12.598 11.4386 12.5882 11.4391 12.5762 11.4395C12.5521 11.4401 12.5191 11.4409 12.4785 11.4434C12.3974 11.4482 12.2845 11.4579 12.1504 11.4766C11.8852 11.5134 11.5209 11.588 11.1484 11.7432C10.7767 11.8981 10.3716 12.1438 10.0576 12.5361C9.73605 12.9381 9.5381 13.46 9.53809 14.1074C9.53809 15.3262 10.7197 16.3623 12.207 16.3623C13.6974 16.3622 15.3679 15.3421 15.6953 13.3789C15.7059 13.3155 15.7117 13.2517 15.7207 13.1895C16.2679 13.4513 16.6137 13.7767 16.8281 14.0996C17.317 14.836 17.2599 15.7565 17.0293 16.4199C16.27 17.9633 15.085 18.6758 14.0742 19.0098C13.5617 19.1791 13.0953 19.2509 12.7588 19.2793C12.5913 19.2934 12.4574 19.2968 12.3682 19.2969C12.3236 19.2969 12.2903 19.2956 12.2695 19.2949C12.2592 19.2946 12.2509 19.2941 12.2471 19.2939L12.207 19.291L12.167 19.2939H12.1611C12.1536 19.2943 12.1408 19.2955 12.123 19.2959C12.0866 19.2968 12.0287 19.2967 11.9541 19.2949C11.8048 19.2913 11.5868 19.2792 11.3232 19.2412C10.7929 19.1646 10.0933 18.9877 9.39941 18.5947C8.05788 17.8349 6.59961 16.1877 6.59961 12.4482C6.59962 8.70878 8.05789 7.0616 9.39941 6.30176C10.0933 5.90875 10.7929 5.73283 11.3232 5.65625C11.5868 5.6182 11.8048 5.60514 11.9541 5.60156C12.0287 5.59978 12.0866 5.5997 12.123 5.60059C12.1408 5.60102 12.1536 5.60219 12.1611 5.60254C12.1636 5.60265 12.1657 5.60247 12.167 5.60254L12.207 5.60547L12.2471 5.60254C12.2478 5.6025 12.2489 5.60259 12.25 5.60254C12.255 5.60229 12.2638 5.60195 12.2764 5.60156C12.3019 5.60077 12.3425 5.60007 12.3965 5.60059C12.5047 5.60161 12.6654 5.60753 12.8643 5.62891C13.2635 5.67183 13.8071 5.77497 14.3848 6.01367C15.5185 6.48221 16.8224 7.48529 17.4209 9.71191C17.5071 10.0315 17.8355 10.2205 18.1553 10.1348C18.4752 10.0488 18.6649 9.72031 18.5791 9.40039C17.8725 6.7717 16.2793 5.49794 14.8428 4.9043C14.1354 4.61204 13.4751 4.48747 12.9922 4.43555C12.7503 4.40955 12.5504 4.40175 12.4082 4.40039C12.3372 4.39972 12.2801 4.4001 12.2393 4.40137ZM12.6211 12.6387L13.0898 12.6475C13.654 12.6684 14.1409 12.7285 14.5615 12.8154C14.548 12.9335 14.5327 13.0559 14.5117 13.1816C14.2946 14.4832 13.1992 15.163 12.207 15.1631C11.2116 15.1631 10.7383 14.5047 10.7383 14.1074C10.7383 13.7205 10.8502 13.466 10.9941 13.2861C11.1456 13.0968 11.3615 12.9543 11.6104 12.8506C11.8585 12.7473 12.1152 12.6929 12.3154 12.665C12.414 12.6514 12.4952 12.6448 12.5498 12.6416C12.5769 12.64 12.5971 12.639 12.6094 12.6387C12.615 12.6385 12.619 12.6387 12.6211 12.6387Z" fill="white"/>
</g>
<defs>
<clipPath id="clip0_129_2931">
<rect width="24" height="24" fill="white"/>
</clipPath>
</defs>
</svg>
