<svg width="24" height="24" viewBox="0 0 24 24" fill="none" xmlns="http://www.w3.org/2000/svg">
<g clip-path="url(#clip0_129_2879)">
<path d="M12 0C18.6274 0 24 5.37258 24 12C24 18.6274 18.6274 24 12 24C5.37258 24 0 18.6274 0 12C0 5.37258 5.37258 0 12 0ZM5 4.40039C4.77477 4.40039 4.56844 4.52609 4.46582 4.72656C4.36324 4.92718 4.38175 5.1689 4.51367 5.35156L10.085 13.0654L4.57617 18.5762C4.34186 18.8105 4.34186 19.1895 4.57617 19.4238C4.81049 19.6581 5.18951 19.6581 5.42383 19.4238L10.7969 14.0508L14.625 19.3516C14.7378 19.5076 14.9188 19.5996 15.1113 19.5996H19C19.2252 19.5996 19.4316 19.4739 19.5342 19.2734C19.6368 19.0728 19.6182 18.8311 19.4863 18.6484L13.9141 10.9336L19.4238 5.42383C19.6581 5.18951 19.6581 4.81049 19.4238 4.57617C19.1895 4.34186 18.8105 4.34186 18.5762 4.57617L13.2021 9.94824L9.375 4.64844C9.26218 4.49244 9.0812 4.40039 8.88867 4.40039H5ZM8.58105 5.59961L17.8271 18.4004H15.4189L6.17285 5.59961H8.58105Z" fill="white"/>
</g>
<defs>
<clipPath id="clip0_129_2879">
<rect width="24" height="24" fill="white"/>
</clipPath>
</defs>
</svg>
