<svg width="24" height="24" viewBox="0 0 24 24" fill="none" xmlns="http://www.w3.org/2000/svg">
<g clip-path="url(#clip0_129_2918)">
<path d="M12 0C18.6274 0 24 5.37258 24 12C24 18.6274 18.6274 24 12 24C5.37258 24 0 18.6274 0 12C0 5.37258 5.37258 0 12 0ZM12 4.80078C10.5133 4.80078 9.08489 4.94729 7.75781 5.21777C6.18544 5.53829 5.14932 5.72758 4.25977 6.87109C3.48429 7.86831 3.40738 9.00969 3.40039 10.6797V13.7207C3.40738 15.3908 3.48411 16.532 4.25977 17.5293C5.14934 18.6728 6.1854 18.8621 7.75781 19.1826C9.08489 19.4531 10.5133 19.6006 12 19.6006C13.4867 19.6006 14.9151 19.4531 16.2422 19.1826C17.8146 18.8621 18.8507 18.6728 19.7402 17.5293C20.5159 16.532 20.5926 15.3908 20.5996 13.7207V10.6797C20.5926 9.00969 20.5157 7.86831 19.7402 6.87109C18.8507 5.72758 17.8146 5.53829 16.2422 5.21777C14.9151 4.94729 13.4867 4.80078 12 4.80078ZM12 6C13.4086 6 14.7568 6.13953 16.0029 6.39355C17.6445 6.72819 18.216 6.86663 18.793 7.6084C19.3728 8.35408 19.4004 9.1917 19.4004 11.4297V12.9717C19.4004 15.2093 19.3729 16.0473 18.793 16.793C18.2162 17.5342 17.6441 17.6723 16.0029 18.0068C14.7568 18.2608 13.4086 18.4004 12 18.4004C10.5914 18.4004 9.2432 18.2608 7.99707 18.0068C6.35589 17.6723 5.78381 17.5342 5.20703 16.793C4.62708 16.0473 4.59962 15.2093 4.59961 12.9717V11.4297C4.59961 9.1917 4.62721 8.35408 5.20703 7.6084C5.78396 6.86663 6.35546 6.72819 7.99707 6.39355C9.24322 6.13953 10.5914 6 12 6ZM11.7695 9.0332C11.3188 8.84656 10.8564 8.72726 10.3857 8.85059C10.1185 8.92069 9.86676 9.0454 9.65234 9.21875C9.25908 9.53706 9.11966 9.99307 9.05859 10.4521C8.99835 10.9056 9 11.4957 9 12.2002C9 12.9048 8.99831 13.4947 9.05859 13.9482C9.11967 14.4074 9.25895 14.8633 9.65234 15.1816C9.8668 15.355 10.1184 15.4797 10.3857 15.5498C10.8563 15.6731 11.3188 15.5538 11.7695 15.3672C12.2208 15.1803 12.7712 14.8763 13.4453 14.5049C14.0633 14.1644 14.5733 13.884 14.9385 13.625C15.2976 13.3702 15.6389 13.0541 15.752 12.5938C15.8153 12.3352 15.8152 12.0661 15.752 11.8076C15.6391 11.3468 15.2978 11.0304 14.9385 10.7754C14.5733 10.5163 14.0635 10.2361 13.4453 9.89551C12.771 9.52395 12.2209 9.2201 11.7695 9.0332ZM10.6904 10.0117C10.7763 9.98933 10.9359 9.98649 11.3105 10.1416C11.6854 10.2968 12.1664 10.5607 12.8662 10.9463C13.5109 11.3015 13.948 11.5439 14.2441 11.7539C14.5462 11.9682 14.5811 12.0689 14.5869 12.0928C14.6042 12.1637 14.6042 12.2367 14.5869 12.3076C14.5807 12.3323 14.5443 12.4335 14.2441 12.6465C13.9481 12.8565 13.5107 13.099 12.8662 13.4541C12.1667 13.8396 11.6853 14.1036 11.3105 14.2588C10.9363 14.4137 10.7763 14.412 10.6904 14.3896C10.581 14.3609 10.4842 14.3112 10.4072 14.249C10.3707 14.2195 10.2946 14.1397 10.248 13.79C10.2008 13.4344 10.1992 12.9398 10.1992 12.2002C10.1992 11.4607 10.2008 10.966 10.248 10.6104C10.2943 10.2625 10.3705 10.1822 10.4072 10.1523C10.4842 10.0901 10.581 10.0404 10.6904 10.0117Z" fill="white"/>
</g>
<defs>
<clipPath id="clip0_129_2918">
<rect width="24" height="24" fill="white"/>
</clipPath>
</defs>
</svg>
