<svg width="80" height="67" viewBox="0 0 80 67" fill="none" xmlns="http://www.w3.org/2000/svg">
<g clip-path="url(#clip0_50_429)">
<path fill-rule="evenodd" clip-rule="evenodd" d="M37.0966 0.107719C37.3793 0.25791 37.5724 0.545873 37.6117 0.875965L40.945 28.876C40.9499 28.9171 40.9524 28.9585 40.9524 29V53.5C40.9524 53.8688 40.7591 54.2077 40.4494 54.3817C40.1397 54.5557 39.764 54.5366 39.4717 54.3321L36.5135 52.2613L39.4399 59.0896C39.4865 59.1982 39.5142 59.3147 39.5217 59.4335L39.9979 66.9335C40.0229 67.3266 39.8257 67.6984 39.4943 67.8832C39.1629 68.068 38.7591 68.0312 38.4629 67.7894L29.8915 60.7894C29.7456 60.6702 29.6358 60.509 29.5757 60.3255L19.8442 30.6444L10.6544 32.4823C10.5645 32.5003 10.4725 32.5046 10.3814 32.495L0.857616 31.495C0.370757 31.4439 0 31.0138 0 30.5V28C0 27.7432 0.0940712 27.4963 0.262726 27.3103L9.78654 16.8103C9.89745 16.6881 10.036 16.5973 10.1894 16.5464L18.7291 13.7148L19.5522 10.2575C19.616 9.98979 19.7822 9.76165 20.0116 9.62706L36.2021 0.127057C36.4786 -0.0352226 36.814 -0.0424707 37.0966 0.107719ZM18.1869 15.992L10.9968 18.3761L1.90476 28.4V29.595L10.4336 30.4905L20.298 28.5177C20.7631 28.4246 21.2226 28.7045 21.3767 29.1745L31.2845 59.3933L37.9561 64.8417L37.6326 59.7462L33.4172 49.9104C33.3889 49.8442 33.3674 49.775 33.3534 49.704L28.6939 26.2202L17.7289 21.4231C17.2941 21.2328 17.057 20.7373 17.1713 20.2575L18.1869 15.992ZM35.1385 48.8951L30.4562 25.296C30.3921 24.9729 30.1803 24.7039 29.8901 24.5769L19.2179 19.9078L21.3003 11.162L35.897 2.59716L39.0476 29.0623V51.6315L35.1385 48.8951Z" fill="white"/>
<path fill-rule="evenodd" clip-rule="evenodd" d="M42.9034 0.107719C42.6207 0.25791 42.4276 0.545873 42.3883 0.875965L39.055 28.876C39.0501 28.9171 39.0476 28.9585 39.0476 29V53.5C39.0476 53.8688 39.2409 54.2077 39.5506 54.3817C39.8603 54.5557 40.236 54.5366 40.5283 54.3321L43.4865 52.2613L40.5601 59.0896C40.5135 59.1982 40.4858 59.3147 40.4783 59.4335L40.0021 66.9335C39.9771 67.3266 40.1743 67.6984 40.5057 67.8832C40.8371 68.068 41.2409 68.0312 41.5371 67.7894L50.1085 60.7894C50.2544 60.6702 50.3642 60.509 50.4243 60.3255L60.1558 30.6444L69.3456 32.4823C69.4355 32.5003 69.5275 32.5046 69.6186 32.495L79.1424 31.495C79.6292 31.4439 80 31.0138 80 30.5V28C80 27.7432 79.9059 27.4963 79.7373 27.3103L70.2135 16.8103C70.1026 16.6881 69.964 16.5973 69.8106 16.5464L61.2709 13.7148L60.4478 10.2575C60.384 9.98979 60.2178 9.76165 59.9884 9.62706L43.7979 0.127057C43.5214 -0.0352226 43.186 -0.0424707 42.9034 0.107719ZM61.8131 15.992L69.0032 18.3761L78.0952 28.4V29.595L69.5664 30.4905L59.702 28.5177C59.2369 28.4246 58.7774 28.7045 58.6233 29.1745L48.7155 59.3933L42.0439 64.8417L42.3674 59.7462L46.5828 49.9104C46.6111 49.8442 46.6326 49.775 46.6466 49.704L51.3061 26.2202L62.2711 21.4231C62.7059 21.2328 62.943 20.7373 62.8287 20.2575L61.8131 15.992ZM44.8615 48.8951L49.5438 25.296C49.6079 24.9729 49.8197 24.7039 50.1099 24.5769L60.7821 19.9078L58.6997 11.162L44.103 2.59716L40.9524 29.0623V51.6315L44.8615 48.8951Z" fill="white"/>
<path d="M57.619 27L58.5714 22L50.4762 25.5L45.7143 49.5L52.3809 28.5L57.619 27Z" fill="white"/>
<path fill-rule="evenodd" clip-rule="evenodd" d="M59.1767 21.228C58.9056 20.9936 58.5336 20.9349 58.2088 21.0753L50.1135 24.5753C49.8216 24.7016 49.6082 24.9715 49.5438 25.2961L44.7819 49.2961C44.679 49.8146 44.9791 50.3275 45.4661 50.4655C45.9532 50.6035 46.4582 50.3188 46.6178 49.8162L53.1232 29.324L57.8696 27.9648C58.2176 27.8651 58.4822 27.5675 58.5529 27.1961L59.5053 22.1961C59.5742 21.8345 59.4479 21.4624 59.1767 21.228ZM57.2885 23.6361L56.8006 26.1979L52.1303 27.5352C51.8231 27.6232 51.5781 27.8666 51.4774 28.1838L49.9816 32.8955L51.3056 26.2229L57.2885 23.6361Z" fill="white"/>
<path d="M10.4762 31.5L0.952393 30.5L10.4762 30L21.9048 27L20.4762 29.5L10.4762 31.5Z" fill="white"/>
<path fill-rule="evenodd" clip-rule="evenodd" d="M22.67 26.4047C22.8993 26.7296 22.9196 27.1677 22.7214 27.5145L21.2929 30.0145C21.1532 30.2588 20.921 30.429 20.6544 30.4823L10.6544 32.4823C10.5645 32.5003 10.4725 32.5046 10.3814 32.495L0.85762 31.495C0.361723 31.443 -0.0120868 30.9983 0.000299022 30.4751C0.0126848 29.952 0.407077 29.5274 0.904826 29.5012L10.3356 29.0061L21.6738 26.0298C22.0475 25.9317 22.4407 26.0797 22.67 26.4047ZM19.2563 28.726L19.879 28.6014L19.9052 28.5557L19.2563 28.726Z" fill="white"/>
<path d="M34.2858 49.5L40.0001 53.5L45.7143 49.5L41.4286 59.5L40.9524 67H39.0477L38.5715 59.5L34.2858 49.5Z" fill="white"/>
<path fill-rule="evenodd" clip-rule="evenodd" d="M33.6701 48.737C33.9941 48.4488 34.4607 48.4206 34.814 48.668L40 52.2982L45.186 48.668C45.5393 48.4206 46.0058 48.4488 46.3299 48.737C46.6539 49.0252 46.757 49.5038 46.5828 49.9104L42.3674 59.7462L41.9026 67.0665C41.8693 67.5918 41.4537 68 40.9524 68H39.0476C38.5462 68 38.1307 67.5918 38.0973 67.0665L37.6325 59.7462L33.4172 49.9104C33.2429 49.5038 33.3461 49.0252 33.6701 48.737ZM36.5135 52.2613L39.4399 59.0896C39.4864 59.1982 39.5141 59.3147 39.5217 59.4335L39.9386 66H40.0613L40.4783 59.4335C40.4858 59.3147 40.5135 59.1982 40.56 59.0896L43.4865 52.2613L40.5283 54.3321C40.2084 54.556 39.7916 54.556 39.4717 54.3321L36.5135 52.2613Z" fill="white"/>
<path d="M21.9048 27L21.4286 22L29.5238 25.5L34.2857 49.5L27.6191 28L21.9048 27Z" fill="white"/>
<path fill-rule="evenodd" clip-rule="evenodd" d="M20.8599 21.1979C21.1283 20.9881 21.4818 20.9416 21.7912 21.0753L29.8864 24.5753C30.1784 24.7016 30.3918 24.9715 30.4562 25.2961L35.2181 49.2961C35.3212 49.8159 35.0194 50.3298 34.5306 50.4664C34.0419 50.6029 33.5367 50.3146 33.3801 49.8096L26.8924 28.8866L21.7482 27.9864C21.3241 27.9122 20.9999 27.5488 20.9571 27.0995L20.4809 22.0995C20.4476 21.7499 20.5915 21.4077 20.8599 21.1979ZM22.5342 23.5595L22.7799 26.1394L27.7756 27.0136C28.126 27.0749 28.4147 27.3358 28.5247 27.6904L29.8046 31.8184L28.6944 26.2229L22.5342 23.5595Z" fill="white"/>
<path d="M69.5238 31.5L79.0476 30.5L69.5238 30L57.619 27L59.5238 29.5L69.5238 31.5Z" fill="white"/>
<path fill-rule="evenodd" clip-rule="evenodd" d="M56.8151 26.4639C56.5969 26.8246 56.6211 27.291 56.8754 27.6247L58.7801 30.1247C58.922 30.3109 59.1225 30.4377 59.3456 30.4823L69.3456 32.4823C69.4355 32.5003 69.5275 32.5046 69.6186 32.495L79.1424 31.495C79.6383 31.443 80.0121 30.9983 79.9997 30.4752C79.9873 29.952 79.5929 29.5274 79.0952 29.5013L69.6599 29.0059L57.8413 26.0276C57.4456 25.9279 57.0332 26.1032 56.8151 26.4639Z" fill="white"/>
</g>
<defs>
<clipPath id="clip0_50_429">
<rect width="80" height="67" fill="white"/>
</clipPath>
</defs>
</svg>
